<?xml version="1.0" encoding="utf-8"?>
<!-- Generator: Adobe Illustrator 26.3.1, SVG Export Plug-In . SVG Version: 6.00 Build 0)  -->
<svg version="1.1" id="Laag_1" xmlns="http://www.w3.org/2000/svg" xmlns:xlink="http://www.w3.org/1999/xlink" x="0px" y="0px"
	 viewBox="0 0 54 15" style="enable-background:new 0 0 54 15;" xml:space="preserve">
<g>
	<path d="M6.9,4.8c1,0,1.8,0.4,2.6,1.1c0.7,0.7,1.1,1.6,1.1,2.7c0,1.1-0.4,2-1.1,2.7c-0.7,0.7-1.6,1.1-2.6,1.1
		c-1.1,0-1.9-0.4-2.5-1.2v1H2.8V2.1h1.6V6C4.9,5.2,5.8,4.8,6.9,4.8z M5,10.3c0.4,0.4,1,0.7,1.6,0.7c0.7,0,1.2-0.2,1.6-0.7
		c0.4-0.4,0.7-1,0.7-1.7c0-0.7-0.2-1.2-0.7-1.7c-0.4-0.4-1-0.7-1.6-0.7C6,6.3,5.4,6.5,5,6.9c-0.4,0.4-0.7,1-0.7,1.7
		C4.3,9.3,4.6,9.8,5,10.3z"/>
	<path d="M13.4,3.6c-0.2,0.2-0.4,0.3-0.7,0.3S12.2,3.8,12,3.6c-0.2-0.2-0.3-0.4-0.3-0.7c0-0.3,0.1-0.5,0.3-0.7s0.4-0.3,0.7-0.3
		s0.5,0.1,0.7,0.3s0.3,0.4,0.3,0.7C13.7,3.2,13.6,3.4,13.4,3.6z M11.9,12.2V5h1.6v7.3H11.9z"/>
	<path d="M19.3,6.5h-1.8V10c0,0.3,0.1,0.5,0.2,0.6c0.1,0.1,0.3,0.2,0.6,0.2c0.3,0,0.6,0,1,0v1.4c-1.2,0.1-2.1,0-2.6-0.3
		c-0.5-0.4-0.8-1-0.8-2V6.5h-1.3V5H16V3.4l1.6-0.5v2h1.8V6.5z"/>
	<path d="M25.8,5h1.7l-2.8,7.3h-1.8L20,5h1.7l2,5.5L25.8,5z"/>
	<path d="M33.9,5h1.6v7.3h-1.6v-1c-0.6,0.8-1.4,1.2-2.5,1.2c-1,0-1.8-0.4-2.6-1.1c-0.7-0.7-1.1-1.6-1.1-2.7c0-1.1,0.4-2,1.1-2.7
		c0.7-0.7,1.6-1.1,2.6-1.1c1.1,0,1.9,0.4,2.5,1.2V5z M30,10.3c0.4,0.4,1,0.7,1.6,0.7c0.7,0,1.2-0.2,1.6-0.7c0.4-0.4,0.7-1,0.7-1.7
		c0-0.7-0.2-1.2-0.7-1.7c-0.4-0.4-1-0.7-1.6-0.7c-0.7,0-1.2,0.2-1.6,0.7c-0.4,0.4-0.7,1-0.7,1.7C29.3,9.3,29.5,9.8,30,10.3z"/>
	<path d="M42.2,5h1.7l-2.8,7.3h-1.8L36.5,5h1.7l2,5.5L42.2,5z"/>
	<path d="M48,12.4c-1.1,0-2-0.4-2.7-1.1c-0.7-0.7-1.1-1.6-1.1-2.7c0-1.1,0.4-2,1.1-2.7C46.1,5.2,47,4.8,48,4.8c1.1,0,2,0.4,2.7,1.1
		c0.7,0.7,1.1,1.6,1.1,2.7c0,1.1-0.4,2-1.1,2.7C50,12,49.1,12.4,48,12.4z M46.4,10.2c0.4,0.4,1,0.7,1.6,0.7c0.6,0,1.2-0.2,1.6-0.7
		c0.4-0.4,0.7-1,0.7-1.6c0-0.7-0.2-1.2-0.7-1.6c-0.4-0.4-1-0.7-1.6-0.7c-0.6,0-1.2,0.2-1.6,0.7c-0.4,0.4-0.7,1-0.7,1.6
		C45.8,9.3,46,9.8,46.4,10.2z"/>
</g>
</svg>
