<?xml version="1.0" encoding="utf-8"?>
<!-- Generator: Adobe Illustrator 26.3.1, SVG Export Plug-In . SVG Version: 6.00 Build 0)  -->
<svg version="1.1" id="Laag_1" xmlns="http://www.w3.org/2000/svg" xmlns:xlink="http://www.w3.org/1999/xlink" x="0px" y="0px"
	 viewBox="0 0 70 15" style="enable-background:new 0 0 70 15;" xml:space="preserve">
<g>
	<polygon points="11.3,3 7.3,3 1.8,12.3 5.8,12.3 	"/>
	<polygon points="14.7,7.4 10.7,7.4 7.8,12.3 11.9,12.3 	"/>
</g>
<g>
	<path d="M22.9,4.8c1,0,1.8,0.4,2.6,1.1c0.7,0.7,1.1,1.6,1.1,2.7c0,1.1-0.4,2-1.1,2.7c-0.7,0.7-1.6,1.1-2.6,1.1
		c-1.1,0-1.9-0.4-2.5-1.2v1h-1.6V2.1h1.6V6C20.9,5.2,21.8,4.8,22.9,4.8z M21,10.3c0.4,0.4,1,0.7,1.6,0.7c0.7,0,1.2-0.2,1.6-0.7
		c0.4-0.4,0.7-1,0.7-1.7c0-0.7-0.2-1.2-0.7-1.7c-0.4-0.4-1-0.7-1.6-0.7c-0.7,0-1.2,0.2-1.6,0.7c-0.4,0.4-0.7,1-0.7,1.7
		C20.3,9.3,20.6,9.8,21,10.3z"/>
	<path d="M29.4,3.6c-0.2,0.2-0.4,0.3-0.7,0.3S28.2,3.8,28,3.6c-0.2-0.2-0.3-0.4-0.3-0.7c0-0.3,0.1-0.5,0.3-0.7s0.4-0.3,0.7-0.3
		s0.5,0.1,0.7,0.3s0.3,0.4,0.3,0.7C29.7,3.2,29.6,3.4,29.4,3.6z M27.9,12.2V5h1.6v7.3H27.9z"/>
	<path d="M35.3,6.5h-1.8V10c0,0.3,0.1,0.5,0.2,0.6c0.1,0.1,0.3,0.2,0.6,0.2c0.3,0,0.6,0,1,0v1.4c-1.2,0.1-2.1,0-2.6-0.3
		c-0.5-0.4-0.8-1-0.8-2V6.5h-1.3V5H32V3.4l1.6-0.5v2h1.8V6.5z"/>
	<path d="M41.8,5h1.7l-2.8,7.3h-1.8L36,5h1.7l2,5.5L41.8,5z"/>
	<path d="M49.9,5h1.6v7.3h-1.6v-1c-0.6,0.8-1.4,1.2-2.5,1.2c-1,0-1.8-0.4-2.6-1.1c-0.7-0.7-1.1-1.6-1.1-2.7c0-1.1,0.4-2,1.1-2.7
		c0.7-0.7,1.6-1.1,2.6-1.1c1.1,0,1.9,0.4,2.5,1.2V5z M46,10.3c0.4,0.4,1,0.7,1.6,0.7c0.7,0,1.2-0.2,1.6-0.7c0.4-0.4,0.7-1,0.7-1.7
		c0-0.7-0.2-1.2-0.7-1.7c-0.4-0.4-1-0.7-1.6-0.7c-0.7,0-1.2,0.2-1.6,0.7c-0.4,0.4-0.7,1-0.7,1.7C45.3,9.3,45.5,9.8,46,10.3z"/>
	<path d="M58.2,5h1.7l-2.8,7.3h-1.8L52.5,5h1.7l2,5.5L58.2,5z"/>
	<path d="M64,12.4c-1.1,0-2-0.4-2.7-1.1c-0.7-0.7-1.1-1.6-1.1-2.7c0-1.1,0.4-2,1.1-2.7C62.1,5.2,63,4.8,64,4.8c1.1,0,2,0.4,2.7,1.1
		c0.7,0.7,1.1,1.6,1.1,2.7c0,1.1-0.4,2-1.1,2.7C66,12,65.1,12.4,64,12.4z M62.4,10.2c0.4,0.4,1,0.7,1.6,0.7c0.6,0,1.2-0.2,1.6-0.7
		c0.4-0.4,0.7-1,0.7-1.6c0-0.7-0.2-1.2-0.7-1.6c-0.4-0.4-1-0.7-1.6-0.7c-0.6,0-1.2,0.2-1.6,0.7c-0.4,0.4-0.7,1-0.7,1.6
		C61.8,9.3,62,9.8,62.4,10.2z"/>
</g>
</svg>
