<?xml version="1.0" encoding="utf-8"?>
<!-- Generator: Adobe Illustrator 26.3.1, SVG Export Plug-In . SVG Version: 6.00 Build 0)  -->
<svg version="1.1" id="Laag_1" xmlns="http://www.w3.org/2000/svg" xmlns:xlink="http://www.w3.org/1999/xlink" x="0px" y="0px"
	 viewBox="0 0 27 27" style="enable-background:new 0 0 27 27;" xml:space="preserve">
<style type="text/css">
	.st0{fill:#B3CBFF;}
	.st1{fill:#0051FF;}
	.st2{fill:#FFFFFF;}
</style>
<g>
	<g>
		<path class="st0" d="M8.4,24.4H5.2c-0.5,0-1-0.4-1-1l0-4c0-0.5,0.4-1,1-1h3.2c0.5,0,1,0.4,1,1v4C9.4,24,8.9,24.4,8.4,24.4z"/>
		<path class="st0" d="M21.8,24.4h-3.2c-0.5,0-1-0.4-1-1v-4c0-0.5,0.4-1,1-1h3.2c0.5,0,1,0.4,1,1v4C22.8,24,22.3,24.4,21.8,24.4z"/>
	</g>
	<path class="st1" d="M23.9,21.9H3.1c-0.8,0-1.5-0.7-1.5-1.5V4.1c0-0.8,0.7-1.5,1.5-1.5h20.8c0.8,0,1.5,0.7,1.5,1.5v16.3
		C25.4,21.2,24.7,21.9,23.9,21.9z"/>
	<path class="st2" d="M7.1,13.7H6.9c-0.7,0-1.3-0.6-1.3-1.3V9.1c0-0.7,0.6-1.3,1.3-1.3h0.2c0.7,0,1.3,0.6,1.3,1.3v3.3
		C8.4,13.1,7.8,13.7,7.1,13.7z"/>
	<g>
		<path class="st1" d="M18.1,15.6c-1.9,0-3.4-1.5-3.4-3.4s1.5-3.4,3.4-3.4c1.9,0,3.4,1.5,3.4,3.4S19.9,15.6,18.1,15.6z"/>
		<path class="st2" d="M18.1,10.1c1.2,0,2.1,1,2.1,2.1s-1,2.1-2.1,2.1c-1.2,0-2.1-1-2.1-2.1S16.9,10.1,18.1,10.1 M18.1,7.6
			c-2.6,0-4.6,2.1-4.6,4.6s2.1,4.6,4.6,4.6s4.6-2.1,4.6-4.6S20.6,7.6,18.1,7.6L18.1,7.6z"/>
	</g>
</g>
</svg>
