<?xml version="1.0" encoding="utf-8"?>
<!-- Generator: Adobe Illustrator 26.3.1, SVG Export Plug-In . SVG Version: 6.00 Build 0)  -->
<svg version="1.1" id="Laag_1" xmlns="http://www.w3.org/2000/svg" xmlns:xlink="http://www.w3.org/1999/xlink" x="0px" y="0px"
	 viewBox="0 0 27 27" style="enable-background:new 0 0 27 27;" xml:space="preserve">
<style type="text/css">
	.st0{fill:#FFFFFF;}
	.st1{fill:#0051FF;}
	.st2{fill:#B3CBFF;}
</style>
<g>
	<line class="st0" x1="15.8" y1="5.2" x2="15.8" y2="14.8"/>
	<path class="st1" d="M26.4,13.2l-7.3,10.2c-0.4,0.6-1.4,0.3-1.4-0.5v-7.3h-5.5c-0.9,0-1.4-1.1-0.9-1.8l7.3-10.2C19,3,20,3.3,20,4.1
		v7.3h5.5C26.4,11.3,26.9,12.4,26.4,13.2z"/>
	<path class="st2" d="M11.3,8.7H4.4c-0.7,0-1.3-0.6-1.3-1.3V7.3c0-0.7,0.6-1.3,1.3-1.3h6.9c0.7,0,1.3,0.6,1.3,1.3v0.1
		C12.6,8.1,12,8.7,11.3,8.7z"/>
	<path class="st2" d="M11.3,22.6H4.4c-0.7,0-1.3-0.6-1.3-1.3v-0.1c0-0.7,0.6-1.3,1.3-1.3h6.9c0.7,0,1.3,0.6,1.3,1.3v0.1
		C12.6,22,12,22.6,11.3,22.6z"/>
	<path class="st2" d="M8.2,15.7H1.7c-0.7,0-1.3-0.6-1.3-1.3v-0.1c0-0.7,0.6-1.3,1.3-1.3h6.5c0.7,0,1.3,0.6,1.3,1.3v0.1
		C9.6,15.1,9,15.7,8.2,15.7z"/>
</g>
</svg>
