<?xml version="1.0" encoding="utf-8"?>
<!-- Generator: Adobe Illustrator 26.3.1, SVG Export Plug-In . SVG Version: 6.00 Build 0)  -->
<svg version="1.1" id="Laag_1" xmlns="http://www.w3.org/2000/svg" xmlns:xlink="http://www.w3.org/1999/xlink" x="0px" y="0px"
	 viewBox="0 0 27 27" style="enable-background:new 0 0 27 27;" xml:space="preserve">
<style type="text/css">
	.st0{fill:#0051FF;}
	.st1{fill:#AFC9FF;}
</style>
<path class="st0" d="M5.3,24.3H4.8c-0.7,0-1.3-0.6-1.3-1.3v-6.2c0-0.7,0.6-1.3,1.3-1.3h0.6c0.7,0,1.3,0.6,1.3,1.3V23
	C6.6,23.7,6,24.3,5.3,24.3z"/>
<path class="st0" d="M11.2,24.3h-0.6c-0.7,0-1.3-0.6-1.3-1.3V9.6c0-0.7,0.6-1.3,1.3-1.3h0.6c0.7,0,1.3,0.6,1.3,1.3V23
	C12.5,23.7,11.9,24.3,11.2,24.3z"/>
<path class="st1" d="M17.1,24.3h-0.6c-0.7,0-1.3-0.6-1.3-1.3V4.3c0-0.7,0.6-1.3,1.3-1.3h0.6c0.7,0,1.3,0.6,1.3,1.3V23
	C18.4,23.7,17.8,24.3,17.1,24.3z"/>
<path class="st0" d="M23,24.3h-0.6c-0.7,0-1.3-0.6-1.3-1.3v-9.8c0-0.7,0.6-1.3,1.3-1.3H23c0.7,0,1.3,0.6,1.3,1.3V23
	C24.3,23.7,23.7,24.3,23,24.3z"/>
</svg>
