<?xml version="1.0" encoding="utf-8"?>
<!-- Generator: Adobe Illustrator 26.3.1, SVG Export Plug-In . SVG Version: 6.00 Build 0)  -->
<svg version="1.1" id="Laag_1" xmlns="http://www.w3.org/2000/svg" xmlns:xlink="http://www.w3.org/1999/xlink" x="0px" y="0px"
	 viewBox="0 0 27 27" style="enable-background:new 0 0 27 27;" xml:space="preserve">
<style type="text/css">
	.st0{fill:#B3CBFF;}
	.st1{fill:#0051FF;}
	.st2{fill:#7EA6FF;}
</style>
<polygon class="st0" points="13.9,1.1 17.3,4.4 22,4.1 22.6,8.9 26.4,11.8 23.8,15.8 24.9,20.5 20.3,21.8 18.2,26.1 13.9,24.2 
	9.5,26.1 7.4,21.8 2.9,20.5 4,15.8 1.4,11.8 5.2,8.9 5.7,4.1 10.4,4.4 "/>
<rect x="7.7" y="12.3" transform="matrix(0.7071 -0.7071 0.7071 0.7071 -5.5187 13.6768)" class="st1" width="12" height="2.4"/>
<circle class="st2" cx="10.3" cy="9.2" r="2.1"/>
<rect x="7.7" y="12.2" transform="matrix(-0.7071 0.7071 -0.7071 -0.7071 32.9295 13.2309)" class="st1" width="12" height="2.4"/>
<circle class="st2" cx="17.2" cy="17.7" r="2.1"/>
</svg>
