<?xml version="1.0" encoding="utf-8"?>
<!-- Generator: Adobe Illustrator 26.3.1, SVG Export Plug-In . SVG Version: 6.00 Build 0)  -->
<svg version="1.1" id="Laag_1" xmlns="http://www.w3.org/2000/svg" xmlns:xlink="http://www.w3.org/1999/xlink" x="0px" y="0px"
	 viewBox="0 0 27 27" style="enable-background:new 0 0 27 27;" xml:space="preserve">
<style type="text/css">
	.st0{fill:#0051FF;}
	.st1{fill:#B3CBFF;}
</style>
<g>
	<path class="st0" d="M18.2,24.5H8.8c-1.1,0-2-0.9-2-2v-18c0-1.1,0.9-2,2-2h9.4c1.1,0,2,0.9,2,2v18C20.2,23.6,19.3,24.5,18.2,24.5z"
		/>
	<path class="st1" d="M18.1,23.4H8.9c-0.5,0-1-0.4-1-1V4.6c0-0.5,0.5-1,1-1h9.3c0.6,0,1,0.5,1,1v17.9C19.1,23,18.7,23.4,18.1,23.4z"
		/>
	<path class="st0" d="M16.3,4.9h-5.6c-0.4,0-0.7-0.3-0.7-0.7V3.5c0-0.4,0.3-0.7,0.7-0.7h5.6c0.4,0,0.7,0.3,0.7,0.7v0.8
		C17,4.6,16.7,4.9,16.3,4.9z"/>
</g>
</svg>
