<svg width="293" height="301" viewBox="0 0 293 301" fill="none" xmlns="http://www.w3.org/2000/svg">
<path fill-rule="evenodd" clip-rule="evenodd" d="M82.0619 211.083L82.0619 272.151L81.3981 272.151L81.3981 211.083L82.0619 211.083Z" fill="#ABD4F2"/>
<path fill-rule="evenodd" clip-rule="evenodd" d="M223.123 148.933L223.123 -7.93905e-08L223.729 0L223.729 148.933L223.123 148.933Z" fill="#ABD4F2"/>
<path fill-rule="evenodd" clip-rule="evenodd" d="M163.486 0.0297755L223.729 0.0297755V0.693558L163.486 0.693558V0.0297755Z" fill="#ABD4F2"/>
<rect y="27" width="79" height="5" fill="#0051FF"/>
<rect x="131.182" y="162.627" width="33.1891" height="4.42521" fill="#C8E1FC"/>
<rect y="40" width="102" height="4" fill="#0051FF"/>
<rect y="52" width="122" height="4" fill="#EDF6FF"/>
<rect y="64" width="92" height="4" fill="#EDF6FF"/>
<rect y="76" width="106" height="4" fill="#EDF6FF"/>
<path fill-rule="evenodd" clip-rule="evenodd" d="M141.641 272.121L81.3981 272.121L81.3981 271.457L141.641 271.457L141.641 272.121Z" fill="#ABD4F2"/>
<path d="M131.897 188.245C131.167 188.245 130.545 188.078 130.032 187.743C129.526 187.409 129.172 186.951 128.969 186.369L130.043 185.737C130.346 186.595 130.975 187.024 131.929 187.024C132.399 187.024 132.75 186.933 132.981 186.751C133.219 186.562 133.339 186.318 133.339 186.02C133.339 185.708 133.212 185.471 132.959 185.311C132.706 185.144 132.258 184.962 131.615 184.766C131.253 184.657 130.961 184.555 130.737 184.461C130.512 184.366 130.274 184.235 130.021 184.068C129.775 183.894 129.591 183.679 129.468 183.425C129.345 183.17 129.284 182.872 129.284 182.53C129.284 181.854 129.522 181.32 129.999 180.927C130.476 180.527 131.051 180.328 131.723 180.328C132.33 180.328 132.862 180.477 133.317 180.775C133.772 181.073 134.123 181.484 134.369 182.007L133.317 182.618C132.999 181.905 132.468 181.549 131.723 181.549C131.362 181.549 131.073 181.636 130.856 181.811C130.639 181.978 130.531 182.207 130.531 182.498C130.531 182.781 130.639 183.007 130.856 183.174C131.08 183.334 131.481 183.505 132.059 183.686C132.348 183.781 132.558 183.854 132.688 183.905C132.825 183.948 133.013 184.021 133.252 184.123C133.498 184.224 133.682 184.326 133.805 184.428C133.928 184.53 134.058 184.657 134.195 184.81C134.34 184.962 134.441 185.137 134.499 185.333C134.557 185.529 134.586 185.751 134.586 185.998C134.586 186.689 134.336 187.238 133.837 187.645C133.346 188.045 132.699 188.245 131.897 188.245Z" fill="#0051FF"/>
<path d="M139.248 182.65H140.419V188.103H139.248V187.405C138.894 187.965 138.334 188.245 137.568 188.245C136.946 188.245 136.444 188.045 136.061 187.645C135.678 187.245 135.486 186.696 135.486 185.998V182.65H136.657V185.878C136.657 186.286 136.765 186.598 136.982 186.816C137.199 187.034 137.496 187.143 137.871 187.143C138.283 187.143 138.616 187.016 138.869 186.762C139.122 186.5 139.248 186.104 139.248 185.573V182.65Z" fill="#0051FF"/>
<path d="M144.857 182.509C145.602 182.509 146.238 182.789 146.765 183.348C147.293 183.901 147.557 184.577 147.557 185.377C147.557 186.184 147.293 186.864 146.765 187.416C146.238 187.969 145.602 188.245 144.857 188.245C144.033 188.245 143.401 187.94 142.96 187.329V190.284H141.789V182.65H142.96V183.436C143.401 182.818 144.033 182.509 144.857 182.509ZM143.448 186.631C143.773 186.958 144.181 187.122 144.673 187.122C145.164 187.122 145.573 186.958 145.898 186.631C146.223 186.296 146.386 185.878 146.386 185.377C146.386 184.875 146.223 184.461 145.898 184.134C145.573 183.799 145.164 183.632 144.673 183.632C144.181 183.632 143.773 183.799 143.448 184.134C143.122 184.461 142.96 184.875 142.96 185.377C142.96 185.878 143.122 186.296 143.448 186.631Z" fill="#0051FF"/>
<path d="M151.686 182.509C152.431 182.509 153.067 182.789 153.595 183.348C154.122 183.901 154.386 184.577 154.386 185.377C154.386 186.184 154.122 186.864 153.595 187.416C153.067 187.969 152.431 188.245 151.686 188.245C150.862 188.245 150.23 187.94 149.789 187.329V190.284H148.618V182.65H149.789V183.436C150.23 182.818 150.862 182.509 151.686 182.509ZM150.277 186.631C150.602 186.958 151.011 187.122 151.502 187.122C151.994 187.122 152.402 186.958 152.727 186.631C153.053 186.296 153.215 185.878 153.215 185.377C153.215 184.875 153.053 184.461 152.727 184.134C152.402 183.799 151.994 183.632 151.502 183.632C151.011 183.632 150.602 183.799 150.277 184.134C149.952 184.461 149.789 184.875 149.789 185.377C149.789 185.878 149.952 186.296 150.277 186.631Z" fill="#0051FF"/>
<path d="M158.006 188.245C157.211 188.245 156.535 187.969 155.979 187.416C155.422 186.864 155.144 186.184 155.144 185.377C155.144 184.57 155.422 183.89 155.979 183.337C156.535 182.785 157.211 182.509 158.006 182.509C158.809 182.509 159.485 182.785 160.034 183.337C160.59 183.89 160.869 184.57 160.869 185.377C160.869 186.184 160.59 186.864 160.034 187.416C159.485 187.969 158.809 188.245 158.006 188.245ZM156.803 186.609C157.128 186.936 157.529 187.1 158.006 187.1C158.483 187.1 158.885 186.936 159.21 186.609C159.535 186.282 159.698 185.871 159.698 185.377C159.698 184.882 159.535 184.472 159.21 184.144C158.885 183.817 158.483 183.654 158.006 183.654C157.529 183.654 157.128 183.817 156.803 184.144C156.478 184.472 156.315 184.882 156.315 185.377C156.315 185.871 156.478 186.282 156.803 186.609Z" fill="#0051FF"/>
<path d="M163.099 183.566C163.395 182.89 163.951 182.552 164.768 182.552V183.828C164.32 183.799 163.93 183.908 163.597 184.155C163.265 184.395 163.099 184.795 163.099 185.355V188.103H161.928V182.65H163.099V183.566Z" fill="#0051FF"/>
<path d="M168.796 183.785H167.452V186.402C167.452 186.627 167.502 186.791 167.603 186.893C167.705 186.987 167.853 187.042 168.048 187.056C168.25 187.064 168.5 187.06 168.796 187.045V188.103C167.9 188.212 167.257 188.136 166.866 187.874C166.476 187.605 166.281 187.114 166.281 186.402V183.785H165.283V182.65H166.281V181.473L167.452 181.124V182.65H168.796V183.785Z" fill="#0051FF"/>
<path d="M244.525 169.759C244.525 169.759 236.855 178.655 234.175 180.202C231.495 181.75 215.602 190.33 215.602 190.33C215.602 190.33 204.928 193.514 204.9 187.277C204.872 181.039 213.212 185.158 213.212 185.158C213.212 185.158 230.728 174.747 232.153 171.542C233.578 168.337 236.765 165.603 236.765 165.603L244.525 169.759Z" fill="#F9CCAB"/>
<path d="M283.925 293.221L278.678 293.221L276.182 274.414L283.926 274.415L283.925 293.221Z" fill="#F9CCAB"/>
<path d="M286.138 300.965L266.225 300.965V300.706C266.225 298.593 267.042 296.566 268.495 295.072C269.949 293.578 271.92 292.739 273.976 292.739L277.614 289.902L284.4 292.739L286.139 292.739L286.138 300.965Z" fill="#F0F0F0"/>
<path d="M280.998 202.115L278.92 175.01L277.288 164.837L286.425 162.677L289.458 176.605L286.816 202.867C287.349 203.566 287.674 204.419 287.75 205.317C287.827 206.215 287.65 207.117 287.244 207.907C286.837 208.697 286.219 209.339 285.469 209.751C284.719 210.162 283.871 210.324 283.035 210.216C282.198 210.108 281.411 209.734 280.774 209.144C280.137 208.553 279.679 207.772 279.46 206.901C279.241 206.03 279.271 205.109 279.545 204.256C279.819 203.403 280.325 202.657 280.998 202.115H280.998Z" fill="#F9CCAB"/>
<path d="M257.374 293.221L252.127 293.221L249.631 274.414L257.375 274.415L257.374 293.221Z" fill="#F9CCAB"/>
<path d="M248.288 208.66L245.976 212.509C245.976 212.509 243.436 213.177 244.266 221.147C245.096 229.118 245.132 276.34 249.151 282.151L249.878 287.141L257.467 287.839L257.659 283.411L266.708 221.899C266.708 221.899 272.038 282.285 276.447 283.762L278.039 288.793L284.994 288.796L284.584 282.867L285.032 208.036L248.288 208.66Z" fill="#EDF7FF"/>
<path fill-rule="evenodd" clip-rule="evenodd" d="M246.465 211.524L246.312 211.485C249.531 199.357 249.826 184.709 248.591 168.741L235.171 184.803L228.611 173.569L234.232 166.256C234.279 166.151 238.943 155.711 242.986 151.174C244.227 149.781 245.39 149.018 246.41 148.634C246.386 148.451 246.361 148.268 246.337 148.085L246.337 147.986L257.994 137.232H268.117L278.152 143.754C283.32 146.356 285.307 151.275 285.909 153.204L286.825 154.294L291.67 177.059L282.735 175.747L285.158 208.443L285.162 208.49L285.144 208.534C284.175 211.008 281.578 210.656 278.571 210.248C276.952 210.028 272.99 211.01 269.15 211.962C265.869 212.776 262.678 213.567 261.115 213.567C254.486 213.567 246.938 211.647 246.465 211.524Z" fill="white"/>
<path d="M271.466 129.519C272.295 124.413 268.827 119.602 263.72 118.774C258.614 117.945 253.802 121.413 252.974 126.519C252.145 131.625 255.613 136.436 260.719 137.264C265.826 138.093 270.637 134.625 271.466 129.519Z" fill="#F9CCAB"/>
<path d="M253.331 126.847C253.331 126.847 253.254 123.497 252.823 122.015C252.392 120.533 251.53 119.263 251.961 119.263C252.392 119.263 252.607 118.204 252.607 118.204C252.607 118.204 253.038 117.992 253.254 118.204C253.469 118.416 253.684 116.722 253.684 116.722C253.684 116.722 253.9 116.086 254.115 116.51C254.331 116.933 254.331 116.722 254.546 116.086C254.762 115.451 255.839 115.028 255.839 115.028C255.839 115.028 259.933 115.239 260.58 114.392C261.226 113.546 268.552 114.181 270.061 115.239C271.569 116.298 278.249 120.11 277.171 123.286C276.094 126.462 272.992 133.775 272.215 134.508C270.986 135.668 270.136 136.086 264.32 137.223C263.182 137.445 257.373 133.795 257.373 133.159C257.373 132.524 258.074 130.51 256.948 130.233C255.246 129.815 255.055 131.929 254.624 131.294C254.193 130.659 253.331 126.847 253.331 126.847Z" fill="#41312E"/>
<path d="M258.481 300.965L239.674 300.965V300.706C239.674 298.593 241.818 295.072 241.818 295.072C243.191 293.578 245.053 292.739 246.994 292.739L250.43 289.902L256.839 292.739L258.481 292.739L258.481 300.965Z" fill="#F0F0F0"/>
<path d="M239.961 178.536L248.761 168.562V187.923L246.414 199.656M239.961 159.175L248.174 149.202L254.041 144.215" stroke="#D3E7F8" stroke-width="0.5"/>
<path d="M292.175 174.429L286.895 152.722L275.162 142.162" stroke="#D3E7F8" stroke-width="0.5"/>
<path d="M109.539 133.125C109.539 133.125 97.1615 127.15 94.6006 124.589C92.0397 122.028 77.5279 106.663 77.5279 106.663C77.5279 106.663 70.6951 95.5618 77.7376 93.6412C84.7801 91.7205 82.6497 102.395 82.6497 102.395C82.6497 102.395 99.7224 119.04 103.777 119.681C107.832 120.321 111.887 123.095 111.887 123.095L109.539 133.125Z" fill="#F9CCAB"/>
<circle cx="145.523" cy="122.856" r="32.1844" fill="#F0F4F8"/>
<path d="M135.145 105.12C135.145 105.12 138.292 109.67 135.627 111.782C132.961 113.894 134.492 122.074 134.492 122.074L137.455 131.415L150.822 129.346L151.404 114.235L150.95 106.835C150.95 106.835 144.557 100.314 144.005 95.4945C143.452 90.6748 135.145 105.12 135.145 105.12Z" fill="#F9CCAB"/>
<path d="M147.368 109.136C153.944 106.959 157.238 99.0432 154.725 91.4551C152.212 83.8669 144.845 79.4803 138.269 81.6573C131.693 83.8344 128.399 91.7506 130.911 99.3387C133.424 106.927 140.792 111.313 147.368 109.136Z" fill="#F9CCAB"/>
<path d="M133.208 82.4622C134.405 80.865 136.201 79.747 138.239 79.3305C140.254 78.9431 142.352 79.3026 144.088 80.3332C145.977 79.6221 148.014 79.1504 150.014 79.3902C152.015 79.63 153.976 80.6745 154.902 82.3952C155.097 82.8409 155.333 83.2698 155.608 83.6769C156.424 84.6939 157.939 84.8258 159.278 84.8746C158.601 85.2436 157.924 85.6124 157.247 85.9813C157.922 86.2751 158.597 86.5689 159.271 86.8627C158.353 87.1903 157.435 87.5178 156.517 87.8454C158.654 89.601 159.171 92.7253 158.361 95.3448C157.595 97.8248 156.863 99.335 154.902 101.122C154.519 99.7887 153.916 98.9203 154.196 97.5395C154.492 96.0806 154.54 94.3747 153.447 93.3447C152.709 92.6499 151.628 92.44 150.608 92.2714C145.387 88.9954 142.198 87.4451 137.352 89.2842C136.721 87.7338 133.649 90.5235 132.985 90.7436C131.716 91.2706 130.409 93.1982 130.041 94.4814C129.865 92.229 130.804 89.4843 131.257 87.2661C131.605 85.5684 132.153 83.8692 133.208 82.4622Z" fill="#0051FF"/>
<path d="M173.868 129.819C173.66 127.587 172.802 123.575 172.073 122.091C169.834 116.231 155.366 111.414 153.423 110.793L146.666 112.862H139.717C139.717 112.862 135.341 109.884 132.769 109.07C128.89 107.843 123.066 112.862 123.066 112.862C122.577 113.045 122.134 113.333 121.769 113.707C121.404 114.081 121.127 114.531 120.956 115.025L114.487 116.895L108.104 118.74L85.9275 103.115L84.8805 103.799L77.8822 108.366L76.8026 109.07L105.501 134.959L116.162 132.458L124.178 130.573L124.863 133.35L123.091 143.11C128.224 148.245 135.02 151.383 142.258 151.962C149.496 152.54 156.704 150.521 162.588 146.267L167.142 142.226C170.316 138.794 172.659 134.679 173.99 130.198L173.868 129.819Z" fill="white"/>
<path fill-rule="evenodd" clip-rule="evenodd" d="M87.0752 102.051L96.4684 112.741L96.1012 113.131L87.0144 102.73L77.8835 108.845L77.5915 108.395L87.0752 102.051Z" fill="#D3E7F8"/>
<path fill-rule="evenodd" clip-rule="evenodd" d="M98.7176 131.034L107.546 133.112L123.782 131.017L123.851 131.548L107.518 133.655L98.4857 131.53L87.9348 123.617L88.2562 123.188L98.7176 131.034Z" fill="#D3E7F8"/>
</svg>
