<?xml version="1.0" encoding="utf-8"?>
<!-- Generator: Adobe Illustrator 26.5.0, SVG Export Plug-In . SVG Version: 6.00 Build 0)  -->
<svg version="1.1" id="Laag_1" xmlns="http://www.w3.org/2000/svg" xmlns:xlink="http://www.w3.org/1999/xlink" x="0px" y="0px"
	 viewBox="0 0 85 85" style="enable-background:new 0 0 85 85;" xml:space="preserve">
<style type="text/css">
	.st0{fill:#3458A4;}
	.st1{fill:none;stroke:#3458A4;stroke-width:5;stroke-miterlimit:10;}
</style>
<image style="overflow:visible;" width="1681" height="257" xlink:href="7FD25D2E.jpg"  transform="matrix(1 0 0 1 -8149 -8148.9604)">
</image>
<path class="st0" d="M62.4,76.8H22.6c-5.6,0-10.1-4.6-10.1-10.1V48.1c0-5.6,4.6-10.1,10.1-10.1h39.8c5.6,0,10.1,4.6,10.1,10.1v18.6
	C72.5,72.3,68,76.8,62.4,76.8z"/>
<path class="st1" d="M42.5,18.7L42.5,18.7c-6.9,0-12.6,5.7-12.6,12.6v6c0,6.9,5.7,12.6,12.6,12.6h0c6.9,0,12.6-5.7,12.6-12.6v-6
	C55.1,24.4,49.4,18.7,42.5,18.7z"/>
</svg>
