<?xml version="1.0" encoding="utf-8"?>
<!-- Generator: Adobe Illustrator 26.5.0, SVG Export Plug-In . SVG Version: 6.00 Build 0)  -->
<svg version="1.1" id="Laag_1" xmlns="http://www.w3.org/2000/svg" xmlns:xlink="http://www.w3.org/1999/xlink" x="0px" y="0px"
	 viewBox="0 0 85 85" style="enable-background:new 0 0 85 85;" xml:space="preserve">
<style type="text/css">
	.st0{fill:#3458A4;}
</style>
<image style="overflow:visible;" width="1681" height="257" xlink:href="1082867F.jpg"  transform="matrix(1 0 0 1 -8149 -8148.9604)">
</image>
<path class="st0" d="M19.5,56.5l7.3-7.3c0.5-0.5,1.1-0.8,1.8-0.8h5.9c1.8,0,3.5-0.7,4.8-2l4.9-4.9c1.4-1.4,2-3.3,1.8-5.2L45.4,32
	c-0.1-0.8,0.2-1.6,0.7-2.1L53,23c0.6-0.6,1.7-0.5,2.1,0.3l2.3,4c1.6,2.8,2.2,6.1,1.7,9.4v0l-1,3.4c-0.3,0.6-3.9,4.7-4.3,5.1
	L41.3,57.6c-1.9,1.9-4.3,3.1-6.9,3.5l0,0c-3.7,0.5-7.5,0.1-11-1.1L20,58.7C19,58.4,18.8,57.2,19.5,56.5z"/>
</svg>
