<?xml version="1.0" encoding="utf-8"?>
<!-- Generator: Adobe Illustrator 26.3.1, SVG Export Plug-In . SVG Version: 6.00 Build 0)  -->
<svg version="1.1" id="Laag_1" xmlns="http://www.w3.org/2000/svg" xmlns:xlink="http://www.w3.org/1999/xlink" x="0px" y="0px"
	 viewBox="0 0 85 85" style="enable-background:new 0 0 85 85;" xml:space="preserve">
<style type="text/css">
	.st0{fill:#3458A4;}
</style>
<image style="overflow:visible;enable-background:new    ;" width="1681" height="258" xlink:href="1082867F.jpg"  transform="matrix(0.9999 0 0 0.9999 -8148.9253 -8149.4487)">
</image>
<path class="st0" d="M17.4,61l9.4-9.4c0.6-0.6,1.4-0.9,2.2-0.9h7.5c2.3,0,4.5-0.9,6.1-2.6l6.3-6.3c1.8-1.8,2.6-4.2,2.3-6.6l-0.8-5.5
	c-0.1-1,0.3-2,0.9-2.7l8.8-8.8c0.8-0.8,2.2-0.6,2.7,0.4l2.9,5.1c1.6,2.8,2.8,5,2.9,7.9c0.1,1.3-0.2,2.6-0.6,3.9l0,0
	c-1,3.3-2.7,6.3-4.9,8.8c-1,1.1-1.8,2-2,2.2L45.2,62.4c-2.4,2.4-5.5,4-8.8,4.5l0,0c-4.7,0.6-9.6,0.1-14-1.4L18,63.9
	C16.8,63.5,16.5,61.9,17.4,61z"/>
</svg>
