<?xml version="1.0" encoding="utf-8"?>
<!-- Generator: Adobe Illustrator 26.5.0, SVG Export Plug-In . SVG Version: 6.00 Build 0)  -->
<svg version="1.1" id="Laag_1" xmlns="http://www.w3.org/2000/svg" xmlns:xlink="http://www.w3.org/1999/xlink" x="0px" y="0px"
	 viewBox="0 0 85 85" style="enable-background:new 0 0 85 85;" xml:space="preserve">
<style type="text/css">
	.st0{fill:#B5C8E9;}
	.st1{fill:#3458A4;}
</style>
<image style="overflow:visible;" width="1681" height="257" xlink:href="951F37E3.jpg"  transform="matrix(1 0 0 1 -8149 -8148.9604)">
</image>
<g>
	<polygon class="st0" points="45.7,46.1 41.4,50.4 35.1,51.5 34.2,57.6 29.2,58.1 28.8,63.1 24.5,67.3 17.5,67.5 17.7,60.5 39,39.3 
			"/>
	<path class="st1" d="M52,17.5c-8.6,0-15.5,6.9-15.5,15.5c0,8.6,6.9,15.5,15.5,15.5c8.6,0,15.5-6.9,15.5-15.5
		C67.5,24.5,60.6,17.5,52,17.5z M56.6,31.6c-1.7,0-3.2-1.4-3.2-3.2c0-1.8,1.4-3.2,3.2-3.2c1.8,0,3.2,1.4,3.2,3.2
		C59.7,30.1,58.3,31.6,56.6,31.6z"/>
</g>
</svg>
